<?xml version="1.0" encoding="iso-8859-1"?>
<!-- Generator: Adobe Illustrator 19.0.0, SVG Export Plug-In . SVG Version: 6.00 Build 0)  -->
<svg version="1.1" id="Layer_1" xmlns="http://www.w3.org/2000/svg" xmlns:xlink="http://www.w3.org/1999/xlink" x="0px" y="0px"
	 viewBox="0 0 512 512" style="enable-background:new 0 0 512 512;" xml:space="preserve">
<path style="fill:#A5A5A5;" d="M503.916,83.537v43.116H8.084V83.537c0-23.812,19.304-43.116,43.116-43.116h409.6
	C484.612,40.421,503.916,59.725,503.916,83.537z"/>
<path style="fill:#FFE6AE;" d="M503.916,105.095v301.811c0,23.812-19.304,43.116-43.116,43.116H51.2
	c-23.812,0-43.116-19.304-43.116-43.116V105.095h64.674V29.642c0-11.906,9.651-21.558,21.558-21.558h86.232
	c11.906,0,21.558,9.651,21.558,21.558v75.453H503.916z"/>
<path style="fill:#FFD880;" d="M202.105,29.642v75.453H72.758V29.642c0-11.906,9.651-21.558,21.558-21.558h86.232
	C192.453,8.084,202.105,17.736,202.105,29.642z"/>
<path style="fill:#FCC159;" d="M180.547,45.811v21.558c0,5.953-4.826,10.779-10.779,10.779h-64.674
	c-5.953,0-10.779-4.826-10.779-10.779V45.811c0-5.953,4.826-10.779,10.779-10.779h64.674
	C175.722,35.032,180.547,39.857,180.547,45.811z"/>
<path style="fill:#BF5243;" d="M428.463,396.126H83.537c-11.906,0-21.558-9.651-21.558-21.558V191.326
	c0-11.906,9.651-21.558,21.558-21.558h344.926c11.906,0,21.558,9.651,21.558,21.558v183.242
	C450.021,386.475,440.368,396.126,428.463,396.126z"/>
<path style="fill:#FC8059;" d="M450.021,282.947v91.621c0,11.906-9.651,21.558-21.558,21.558H83.537
	c-11.906,0-21.558-9.651-21.558-21.558v-91.621H450.021z"/>
<path style="fill:#FED766;" d="M385.347,503.916H266.779c-11.906,0-21.558-9.651-21.558-21.558v-214.82
	c0-7.208,3.602-13.939,9.6-17.937l59.284-39.523c7.241-4.828,16.675-4.828,23.916,0l59.284,39.523
	c5.997,3.998,9.6,10.729,9.6,17.937v214.82C406.905,494.264,397.253,503.916,385.347,503.916z"/>
<path style="fill:#AD8653;" d="M347.621,266.779c0,11.906-9.651,21.558-21.558,21.558s-21.558-9.651-21.558-21.558
	s9.651-21.558,21.558-21.558S347.621,254.872,347.621,266.779z"/>
<path style="fill:#4C4C4C;" d="M377.263,73.297v-1.078c0-4.466,3.618-8.084,8.084-8.084s8.084,3.618,8.084,8.084v1.078
	c0,4.466-3.618,8.084-8.084,8.084S377.263,77.763,377.263,73.297z M417.684,81.381c4.466,0,8.084-3.618,8.084-8.084v-1.078
	c0-4.466-3.618-8.084-8.084-8.084c-4.466,0-8.084,3.618-8.084,8.084v1.078C409.6,77.763,413.218,81.381,417.684,81.381z
	 M450.021,81.381c4.466,0,8.084-3.618,8.084-8.084v-1.078c0-4.466-3.618-8.084-8.084-8.084s-8.084,3.618-8.084,8.084v1.078
	C441.937,77.763,445.555,81.381,450.021,81.381z M512,83.537v21.558v301.811c0,28.231-22.969,51.2-51.2,51.2h-45.811v24.253
	c0,16.344-13.298,29.642-29.642,29.642H266.779c-16.344,0-29.642-13.298-29.642-29.642v-24.253H51.2
	c-28.231,0-51.2-22.969-51.2-51.2V105.095V83.537c0-28.231,22.969-51.2,51.2-51.2h13.474v-2.695C64.674,13.298,77.972,0,94.316,0
	h86.232c16.344,0,29.642,13.298,29.642,29.642v2.695H460.8C489.031,32.337,512,55.306,512,83.537z M210.189,48.505v48.505h285.642
	V83.537c0-19.317-15.715-35.032-35.032-35.032H210.189z M80.842,97.011h113.179V29.642c0-7.43-6.044-13.474-13.474-13.474H94.316
	c-7.43,0-13.474,6.044-13.474,13.474V97.011z M16.168,83.537v13.474h48.505V48.505H51.2C31.883,48.505,16.168,64.22,16.168,83.537z
	 M307.2,177.853v27.113l2.421-1.615c9.988-6.66,22.896-6.661,32.885,0l59.283,39.522c8.265,5.51,13.2,14.73,13.2,24.664v120.504
	h13.474c7.43,0,13.474-6.044,13.474-13.474V191.326c0-7.43-6.044-13.474-13.474-13.474H307.2z M343.08,161.684
	c-3.035-6.362-9.511-10.779-17.017-10.779s-13.982,4.417-17.017,10.779H343.08z M291.032,177.853H83.537
	c-7.43,0-13.474,6.044-13.474,13.474v183.242c0,7.43,6.044,13.474,13.474,13.474h153.6V267.538c0-9.934,4.935-19.154,13.2-24.664
	l40.695-27.13V177.853z M398.821,482.358v-32.315c0-0.008-0.001-0.014-0.001-0.022s0.001-0.014,0.001-0.022V267.538
	c0-4.515-2.243-8.706-6-11.211l-59.284-39.522c-2.27-1.513-4.873-2.27-7.474-2.27c-2.602,0-5.203,0.757-7.473,2.27l-11.39,7.594
	v15.433c0,1.3,0.133,2.57,0.384,3.795c5.071-4.056,11.496-6.49,18.479-6.49c16.344,0,29.642,13.298,29.642,29.642
	s-13.298,29.642-29.642,29.642s-29.642-13.298-29.642-29.642c0-2.421,0.299-4.773,0.848-7.027
	c-3.928-5.661-6.238-12.524-6.238-19.921v-4.655l-31.727,21.15c-3.756,2.505-6,6.696-6,11.211v214.82
	c0,7.43,6.044,13.474,13.474,13.474h118.568C392.777,495.832,398.821,489.788,398.821,482.358z M313.986,272.717
	c2.2,4.456,6.78,7.536,12.077,7.536c7.43,0,13.474-6.044,13.474-13.474s-6.044-13.474-13.474-13.474
	c-3.331,0-6.378,1.221-8.731,3.232c2.614,1.372,5.58,2.158,8.731,2.158c4.466,0,8.084,3.618,8.084,8.084s-3.618,8.084-8.084,8.084
	C321.821,274.863,317.754,274.104,313.986,272.717z M495.832,113.179H16.168v293.726c0,19.317,15.715,35.032,35.032,35.032h185.937
	v-37.726h-153.6c-16.344,0-29.642-13.298-29.642-29.642V191.326c0-16.344,13.298-29.642,29.642-29.642h208.447
	c3.661-15.43,17.546-26.947,34.08-26.947s30.419,11.517,34.08,26.947h68.32c16.344,0,29.642,13.298,29.642,29.642v183.242
	c0,16.344-13.298,29.642-29.642,29.642h-13.474v37.726H460.8c19.317,0,35.032-15.715,35.032-35.032V113.179z"/>
<g>
</g>
<g>
</g>
<g>
</g>
<g>
</g>
<g>
</g>
<g>
</g>
<g>
</g>
<g>
</g>
<g>
</g>
<g>
</g>
<g>
</g>
<g>
</g>
<g>
</g>
<g>
</g>
<g>
</g>
</svg>
