<?xml version="1.0" encoding="iso-8859-1"?>
<!-- Generator: Adobe Illustrator 19.0.0, SVG Export Plug-In . SVG Version: 6.00 Build 0)  -->
<svg version="1.1" id="Layer_1" xmlns="http://www.w3.org/2000/svg" xmlns:xlink="http://www.w3.org/1999/xlink" x="0px" y="0px"
	 viewBox="0 0 512 512" style="enable-background:new 0 0 512 512;" xml:space="preserve">
<path style="fill:#A5A5A5;" d="M503.916,110.484v37.726H8.084v-37.726c0-23.812,19.304-43.116,43.116-43.116h409.6
	C484.612,67.368,503.916,86.672,503.916,110.484z"/>
<path style="fill:#E9F2F4;" d="M503.916,132.042v301.81c0,23.812-19.304,43.116-43.116,43.116H51.2
	c-23.812,0-43.116-19.304-43.116-43.116v-301.81h64.674V56.589c0-11.906,9.651-21.558,21.558-21.558h86.232
	c11.906,0,21.558,9.651,21.558,21.558v75.453H503.916z"/>
<path style="fill:#C3E4ED;" d="M202.105,56.589v75.453H72.758V56.589c0-11.906,9.651-21.558,21.558-21.558h86.232
	C192.454,35.032,202.105,44.683,202.105,56.589z"/>
<path style="fill:#B2D1D8;" d="M180.547,72.758v21.558c0,5.953-4.826,10.779-10.779,10.779h-64.674
	c-5.953,0-10.779-4.826-10.779-10.779V72.758c0-5.953,4.826-10.779,10.779-10.779h64.674
	C175.722,61.979,180.547,66.805,180.547,72.758z"/>
<path style="fill:#CFDFE2;" d="M428.463,428.463h-53.895c-11.906,0-21.558-9.651-21.558-21.558V288.337
	c0-11.906,9.651-21.558,21.558-21.558h53.895c11.906,0,21.558,9.651,21.558,21.558v118.568
	C450.021,418.812,440.37,428.463,428.463,428.463z M450.021,202.105L450.021,202.105c0-11.906-9.651-21.558-21.558-21.558h-53.895
	c-11.906,0-21.558,9.651-21.558,21.558l0,0c0,11.906,9.651,21.558,21.558,21.558h53.895
	C440.37,223.663,450.021,214.012,450.021,202.105z"/>
<path style="fill:#FFD880;" d="M185.937,180.547c-68.46,0-123.958,55.498-123.958,123.958s55.498,123.958,123.958,123.958
	s123.958-55.498,123.958-123.958S254.397,180.547,185.937,180.547z M185.937,363.789c-32.742,0-59.284-26.542-59.284-59.284
	s26.542-59.284,59.284-59.284s59.284,26.542,59.284,59.284S218.679,363.789,185.937,363.789z"/>
<path style="fill:#FC8059;" d="M309.895,304.505c0,68.46-55.498,123.958-123.958,123.958v-64.674
	c32.742,0,59.284-26.542,59.284-59.284s-26.542-59.284-59.284-59.284v-64.674C254.397,180.547,309.895,236.045,309.895,304.505z"/>
<path style="fill:#BF5243;" d="M185.937,245.221v-64.674c68.46,0,123.958,55.498,123.958,123.958h-64.674
	C245.221,271.763,218.679,245.221,185.937,245.221z"/>
<path style="fill:#4C4C4C;" d="M185.937,436.547c72.809,0,132.042-59.234,132.042-132.042s-59.234-132.042-132.042-132.042
	S53.895,231.697,53.895,304.505S113.128,436.547,185.937,436.547z M194.021,420.1v-48.708c30.701-3.686,55.115-28.101,58.802-58.802
	h48.708C297.552,370.053,251.485,416.12,194.021,420.1z M194.021,188.911c57.464,3.98,103.531,50.048,107.51,107.51h-48.708
	c-3.686-30.701-28.101-55.115-58.802-58.802V188.911z M237.137,304.505c0,28.231-22.969,51.2-51.2,51.2s-51.2-22.969-51.2-51.2
	s22.969-51.2,51.2-51.2S237.137,276.274,237.137,304.505z M177.853,188.911v48.708c-33.351,4.004-59.284,32.474-59.284,66.887
	s25.933,62.881,59.284,66.887V420.1c-60.136-4.165-107.789-54.42-107.789-115.595S117.717,193.076,177.853,188.911z M458.105,99.166
	v1.078c0,4.465-3.618,8.084-8.084,8.084s-8.084-3.62-8.084-8.084v-1.078c0-4.465,3.618-8.084,8.084-8.084
	S458.105,94.702,458.105,99.166z M460.8,59.284H210.189v-2.695c0-16.345-13.297-29.642-29.642-29.642H94.316
	c-16.345,0-29.642,13.297-29.642,29.642v2.695H51.2c-28.231,0-51.2,22.969-51.2,51.2v323.368c0,28.231,22.969,51.2,51.2,51.2h409.6
	c28.231,0,51.2-22.969,51.2-51.2V110.484C512,82.253,489.031,59.284,460.8,59.284z M80.842,56.589
	c0-7.43,6.044-13.474,13.474-13.474h86.232c7.43,0,13.474,6.044,13.474,13.474v67.368H80.842V56.589z M16.168,110.484
	c0-19.316,15.716-35.032,35.032-35.032h13.474v48.505H16.168V110.484z M495.832,433.853c0,19.316-15.715,35.032-35.032,35.032H51.2
	c-19.316,0-35.032-15.716-35.032-35.032V140.126h479.663V433.853z M495.832,123.958H210.189V75.453H460.8
	c19.317,0,35.032,15.716,35.032,35.032V123.958z M393.432,99.166v1.078c0,4.465-3.618,8.084-8.084,8.084s-8.084-3.62-8.084-8.084
	v-1.078c0-4.465,3.618-8.084,8.084-8.084S393.432,94.702,393.432,99.166z M425.768,99.166v1.078c0,4.465-3.618,8.084-8.084,8.084
	c-4.466,0-8.084-3.62-8.084-8.084v-1.078c0-4.465,3.618-8.084,8.084-8.084C422.15,91.082,425.768,94.702,425.768,99.166z"/>
<g>
</g>
<g>
</g>
<g>
</g>
<g>
</g>
<g>
</g>
<g>
</g>
<g>
</g>
<g>
</g>
<g>
</g>
<g>
</g>
<g>
</g>
<g>
</g>
<g>
</g>
<g>
</g>
<g>
</g>
</svg>
