<?xml version="1.0" encoding="iso-8859-1"?>
<!-- Generator: Adobe Illustrator 19.0.0, SVG Export Plug-In . SVG Version: 6.00 Build 0)  -->
<svg version="1.1" id="Layer_1" xmlns="http://www.w3.org/2000/svg" xmlns:xlink="http://www.w3.org/1999/xlink" x="0px" y="0px"
	 viewBox="0 0 512 512" style="enable-background:new 0 0 512 512;" xml:space="preserve">
<path style="fill:#CFDFE2;" d="M460.8,234.442c0,125.014-101.344,226.358-226.358,226.358S8.084,359.456,8.084,234.442
	S109.428,8.084,234.442,8.084S460.8,109.428,460.8,234.442z"/>
<path style="fill:#E9F2F4;" d="M324.985,234.442c0,125.014-40.537,226.358-90.543,226.358s-90.543-101.344-90.543-226.358
	S184.436,8.084,234.442,8.084S324.985,109.428,324.985,234.442z"/>
<path style="fill:#C1D1D3;" d="M38.374,121.263H430.51c19.261,33.295,30.29,71.947,30.29,113.179s-11.029,79.884-30.29,113.179
	H38.374c-19.261-33.295-30.29-71.947-30.29-113.179S19.113,154.558,38.374,121.263z"/>
<path style="fill:#CFDFE2;" d="M156.014,121.263h156.854c7.705,33.295,12.116,71.947,12.116,113.179s-4.412,79.884-12.116,113.179
	H156.014c-7.705-33.295-12.116-71.947-12.116-113.179S148.311,154.558,156.014,121.263z"/>
<path style="fill:#B5C4C6;" d="M38.374,347.621c-19.261-33.295-30.29-71.947-30.29-113.179H460.8
	c0,41.232-11.029,79.884-30.29,113.179H38.374z"/>
<path style="fill:#C1D1D3;" d="M324.985,234.442c0,41.232-4.412,79.884-12.116,113.179H156.014
	c-7.705-33.295-12.116-71.947-12.116-113.179H324.985z"/>
<path style="fill:#E9F2F4;" d="M127.57,380.851c-1.596,1.992-3.944,3.028-6.312,3.028c-1.774,0-3.559-0.581-5.052-1.777
	c-45.08-36.142-70.934-89.961-70.934-147.66s25.854-111.518,70.935-147.66c3.484-2.793,8.571-2.232,11.364,1.25
	c2.793,3.484,2.233,8.571-1.25,11.364C85.088,132.453,61.44,181.675,61.44,234.442s23.648,101.989,64.88,135.045
	C129.803,372.28,130.363,377.368,127.57,380.851z"/>
<path style="fill:#A5A5A5;" d="M503.916,256v53.895H191.326V256c0-11.906,9.651-21.558,21.558-21.558h269.474
	C494.264,234.442,503.916,244.094,503.916,256z"/>
<path style="fill:#F2EFE2;" d="M503.916,288.337v194.021c0,11.906-9.651,21.558-21.558,21.558H212.884
	c-11.906,0-21.558-9.651-21.558-21.558V288.337h43.116v-64.674c0-5.953,4.826-10.779,10.779-10.779h64.674
	c5.953,0,10.779,4.826,10.779,10.779v64.674H503.916z"/>
<g>
	<path style="fill:#E2DFD7;" d="M471.579,379.958v86.232c0,2.976-2.413,5.389-5.389,5.389H229.053c-2.976,0-5.389-2.413-5.389-5.389
		v-86.232c0-2.976,2.413-5.389,5.389-5.389h237.137C469.165,374.568,471.579,376.982,471.579,379.958z M229.053,353.01h64.674
		c2.976,0,5.389-2.413,5.389-5.389v-10.779c0-2.976-2.413-5.389-5.389-5.389h-64.674c-2.976,0-5.389,2.413-5.389,5.389v10.779
		C223.663,350.597,226.077,353.01,229.053,353.01z M466.189,331.453H326.063c-2.976,0-5.389,2.413-5.389,5.389v10.779
		c0,2.976,2.413,5.389,5.389,5.389h140.126c2.976,0,5.389-2.413,5.389-5.389v-10.779
		C471.579,333.866,469.165,331.453,466.189,331.453z"/>
	<path style="fill:#E2DFD7;" d="M320.674,223.663v64.674h-86.232v-64.674c0-5.953,4.826-10.779,10.779-10.779h64.674
		C315.848,212.884,320.674,217.71,320.674,223.663z"/>
</g>
<path style="fill:#CCCAC4;" d="M293.726,256h-32.337c-2.976,0-5.389-2.413-5.389-5.389v-10.779c0-2.976,2.413-5.389,5.389-5.389
	h32.337c2.976,0,5.389,2.413,5.389,5.389v10.779C299.116,253.587,296.702,256,293.726,256z"/>
<path style="fill:#4C4C4C;" d="M482.358,226.358h-13.61c-2.006-59.59-26.162-115.322-68.53-157.692
	C355.937,24.386,297.065,0,234.442,0S112.947,24.386,68.666,68.666C24.386,112.947,0,171.821,0,234.442
	c0,109.923,76.661,205.093,183.242,228.815v19.1c0,16.345,13.298,29.642,29.642,29.642h269.474C498.702,512,512,498.703,512,482.358
	V256C512,239.655,498.702,226.358,482.358,226.358z M452.568,226.358H333.013c-0.472-34.223-3.934-67.182-10.078-97.011h102.774
	C441.695,158.327,451.286,191.294,452.568,226.358z M415.853,113.179h-96.586c-3.728-14.975-8.174-28.998-13.295-41.799
	c-8.818-22.046-19.24-39.347-30.751-51.393C333.632,31.072,383.884,65.504,415.853,113.179z M234.442,16.168
	c25.625,0,52.418,36.324,68.263,97.011H166.179C182.024,52.492,208.817,16.168,234.442,16.168z M193.664,19.987
	c-11.512,12.045-21.934,29.347-30.751,51.393c-5.121,12.801-9.566,26.823-13.295,41.799H53.031
	C85.001,65.504,135.252,31.072,193.664,19.987z M43.175,129.347h102.774c-6.143,29.829-9.606,62.787-10.078,97.011H16.316
	C17.598,191.294,27.189,158.327,43.175,129.347z M16.317,242.526h119.555c0.483,34.277,4.032,67.298,10.155,97.011H43.172
	C27.135,310.395,17.599,277.353,16.317,242.526z M183.242,446.663C128.664,433.566,82.791,400.257,53,355.705h96.691
	c8.137,32.759,19.572,60.619,33.551,80.44V446.663z M183.242,403.846c-6.609-13.934-12.314-30.181-16.973-48.141h16.973V403.846z
	 M183.242,256v83.537h-20.786c-6.272-29.381-9.921-62.463-10.415-97.011h34.444C184.413,246.571,183.242,251.152,183.242,256z
	 M152.038,226.358c0.49-36.114,4.262-68.775,10.308-97.011h144.191c4.882,22.797,8.28,48.48,9.667,76.538
	c-1.974-0.703-4.098-1.085-6.31-1.085H245.22c-10.401,0-18.863,8.463-18.863,18.863v2.695h-13.474H152.038z M312.589,223.663v56.589
	h-70.063v-56.589c0-1.485,1.208-2.695,2.695-2.695h64.674C311.381,220.968,312.589,222.178,312.589,223.663z M226.358,242.526
	v37.726h-26.947V256c0-7.43,6.044-13.474,13.474-13.474H226.358z M495.832,482.358c0,7.43-6.044,13.474-13.474,13.474H212.884
	c-7.43,0-13.474-6.044-13.474-13.474v-25.532c0.002-0.103,0.002-0.206,0-0.308v-22.899c0.001-0.06,0.001-0.121,0-0.18V296.421
	h296.421V482.358z M495.832,280.253H328.758v-37.726h153.6c7.43,0,13.474,6.044,13.474,13.474V280.253z M479.663,260.851v1.078
	c0,4.465-3.618,8.084-8.084,8.084s-8.084-3.62-8.084-8.084v-1.078c0-4.465,3.618-8.084,8.084-8.084S479.663,256.386,479.663,260.851
	z M447.326,260.851v1.078c0,4.465-3.618,8.084-8.084,8.084c-4.466,0-8.084-3.62-8.084-8.084v-1.078c0-4.465,3.618-8.084,8.084-8.084
	C443.708,252.766,447.326,256.386,447.326,260.851z M414.989,260.851v1.078c0,4.465-3.618,8.084-8.084,8.084
	s-8.084-3.62-8.084-8.084v-1.078c0-4.465,3.618-8.084,8.084-8.084S414.989,256.386,414.989,260.851z"/>
<g>
</g>
<g>
</g>
<g>
</g>
<g>
</g>
<g>
</g>
<g>
</g>
<g>
</g>
<g>
</g>
<g>
</g>
<g>
</g>
<g>
</g>
<g>
</g>
<g>
</g>
<g>
</g>
<g>
</g>
</svg>
