<?xml version="1.0" encoding="iso-8859-1"?>
<!-- Generator: Adobe Illustrator 19.0.0, SVG Export Plug-In . SVG Version: 6.00 Build 0)  -->
<svg version="1.1" id="Layer_1" xmlns="http://www.w3.org/2000/svg" xmlns:xlink="http://www.w3.org/1999/xlink" x="0px" y="0px"
	 viewBox="0 0 512 512" style="enable-background:new 0 0 512 512;" xml:space="preserve">
<path style="fill:#D6A154;" d="M288.337,385.347v43.116h32.337c11.906,0,21.558,9.651,21.558,21.558l0,0
	c0,11.906-9.651,21.558-21.558,21.558h-32.337v10.779c0,11.906-9.651,21.558-21.558,21.558h-21.558
	c-11.906,0-21.558-9.651-21.558-21.558v-10.779v-43.116v-43.116v-43.116V234.442h64.674v107.789h32.337
	c11.906,0,21.558,9.651,21.558,21.558l0,0c0,11.906-9.651,21.558-21.558,21.558H288.337z"/>
<path style="fill:#FED766;" d="M428.463,57.359v160.144c0,27.214-22.061,49.275-49.275,49.275h-86.232h-4.62l0,0
	c0,35.718-28.955,64.674-64.674,64.674l0,0v-64.674h-4.62h-86.232c-27.214,0-49.275-22.061-49.275-49.275V57.359
	c0-27.214,22.061-49.275,49.275-49.275h246.375C406.402,8.084,428.463,30.145,428.463,57.359z"/>
<path style="fill:#AD8653;" d="M231.747,180.008v1.078c0,4.465-3.62,8.084-8.084,8.084c-4.465,0-8.084-3.62-8.084-8.084v-1.078
	c0-4.465,3.62-8.084,8.084-8.084C228.128,171.924,231.747,175.544,231.747,180.008z M256,171.924c-4.465,0-8.084,3.62-8.084,8.084
	v1.078c0,4.465,3.62,8.084,8.084,8.084c4.465,0,8.084-3.62,8.084-8.084v-1.078C264.084,175.544,260.465,171.924,256,171.924z
	 M288.337,171.924c-4.465,0-8.084,3.62-8.084,8.084v1.078c0,4.465,3.62,8.084,8.084,8.084s8.084-3.62,8.084-8.084v-1.078
	C296.421,175.544,292.801,171.924,288.337,171.924z M191.326,102.4h129.347c4.465,0,8.084-3.62,8.084-8.084s-3.62-8.084-8.084-8.084
	H191.326c-4.465,0-8.084,3.62-8.084,8.084S186.862,102.4,191.326,102.4z M320.674,129.347H191.326c-4.465,0-8.084,3.62-8.084,8.084
	c0,4.465,3.62,8.084,8.084,8.084h129.347c4.465,0,8.084-3.62,8.084-8.084C328.758,132.967,325.138,129.347,320.674,129.347z"/>
<path style="fill:#4C4C4C;" d="M379.188,0H132.812c-31.628,0-57.359,25.732-57.359,57.359v160.144
	c0,31.629,25.732,57.36,57.359,57.36h82.767v207.495c0,16.345,13.298,29.642,29.642,29.642h21.558
	c16.344,0,29.642-13.297,29.642-29.642v-2.695h24.253c16.344,0,29.642-13.297,29.642-29.642c0-16.345-13.298-29.642-29.642-29.642
	h-24.253v-26.947h24.253c16.344,0,29.642-13.297,29.642-29.642s-13.298-29.642-29.642-29.642h-24.253v-59.284h82.767
	c31.628,0,57.359-25.732,57.359-57.359V57.359C436.547,25.732,410.816,0,379.188,0z M320.674,350.316
	c7.43,0,13.474,6.044,13.474,13.474s-6.044,13.474-13.474,13.474h-32.337c-4.466,0-8.084,3.62-8.084,8.084v43.116
	c0,4.465,3.618,8.084,8.084,8.084h32.337c7.43,0,13.474,6.044,13.474,13.474s-6.044,13.474-13.474,13.474h-32.337
	c-4.466,0-8.084,3.62-8.084,8.084v10.779c0,7.43-6.044,13.474-13.474,13.474h-21.558c-7.43,0-13.474-6.044-13.474-13.474V339.091
	c19.529-2.169,36.754-12.1,48.505-26.628v29.769c0,4.465,3.618,8.084,8.084,8.084H320.674z M420.379,217.504
	c0,22.712-18.478,41.191-41.191,41.191h-90.851c-4.466,0-8.084,3.62-8.084,8.084c0,28.459-21.118,52.078-48.505,56.014v-56.014
	c0-4.465-3.618-8.084-8.084-8.084h-90.851c-22.712,0-41.191-18.478-41.191-41.191V57.359c0-22.712,18.478-41.191,41.191-41.191
	h246.377c22.712,0,41.191,18.478,41.191,41.191V217.504z"/>
<g>
</g>
<g>
</g>
<g>
</g>
<g>
</g>
<g>
</g>
<g>
</g>
<g>
</g>
<g>
</g>
<g>
</g>
<g>
</g>
<g>
</g>
<g>
</g>
<g>
</g>
<g>
</g>
<g>
</g>
</svg>
