<?xml version="1.0" encoding="iso-8859-1"?>
<!-- Generator: Adobe Illustrator 19.0.0, SVG Export Plug-In . SVG Version: 6.00 Build 0)  -->
<svg version="1.1" id="Layer_1" xmlns="http://www.w3.org/2000/svg" xmlns:xlink="http://www.w3.org/1999/xlink" x="0px" y="0px"
	 viewBox="0 0 512 512" style="enable-background:new 0 0 512 512;" xml:space="preserve">
<path style="fill:#A5A5A5;" d="M503.916,83.537v32.337H8.084V83.537c0-23.812,19.304-43.116,43.116-43.116h409.6
	C484.612,40.421,503.916,59.725,503.916,83.537z"/>
<path style="fill:#E9F2F4;" d="M503.916,105.095v301.811c0,23.812-19.304,43.116-43.116,43.116H51.2
	c-23.812,0-43.116-19.304-43.116-43.116V105.095h64.674V29.642c0-11.906,9.651-21.558,21.558-21.558h86.232
	c11.906,0,21.558,9.651,21.558,21.558v75.453H503.916z"/>
<path style="fill:#CFDFE2;" d="M450.021,261.389v118.568c0,11.906-9.651,21.558-21.558,21.558H83.537
	c-11.906,0-21.558-9.651-21.558-21.558V261.389c0-11.906,9.651-21.558,21.558-21.558h344.926
	C440.37,239.832,450.021,249.483,450.021,261.389z M83.537,196.716h97.011c11.906,0,21.558-9.651,21.558-21.558
	c0-11.906-9.651-21.558-21.558-21.558H83.537c-11.906,0-21.558,9.651-21.558,21.558C61.979,187.064,71.63,196.716,83.537,196.716z
	 M256,196.716h172.463c11.906,0,21.558-9.651,21.558-21.558c0-11.906-9.651-21.558-21.558-21.558H256
	c-11.906,0-21.558,9.651-21.558,21.558C234.442,187.064,244.094,196.716,256,196.716z"/>
<path style="fill:#C3E4ED;" d="M202.105,29.642v75.453H72.758V29.642c0-11.906,9.651-21.558,21.558-21.558h86.232
	C192.454,8.084,202.105,17.736,202.105,29.642z"/>
<path style="fill:#B2D1D8;" d="M180.547,45.811v21.558c0,5.953-4.826,10.779-10.779,10.779h-64.674
	c-5.953,0-10.779-4.826-10.779-10.779V45.811c0-5.953,4.826-10.779,10.779-10.779h64.674
	C175.722,35.032,180.547,39.857,180.547,45.811z"/>
<path style="fill:#A5A5A5;" d="M428.148,442.865L428.148,442.865c-7.781,13.477-25.014,18.095-38.491,10.313l-12.324-7.115
	c-7.813,6.686-16.859,11.969-26.751,15.466v14.209c0,15.562-12.616,28.177-28.177,28.177c-15.562,0-28.177-12.616-28.177-28.177
	v-14.209c-9.892-3.497-18.939-8.779-26.751-15.466l-12.324,7.115c-13.477,7.781-30.71,3.164-38.491-10.313l0,0
	c-7.781-13.477-3.164-30.709,10.313-38.491l12.312-7.108c-0.926-5.01-1.414-10.174-1.414-15.452c0-5.278,0.488-10.442,1.414-15.452
	l-12.312-7.108c-13.477-7.781-18.095-25.014-10.313-38.491l0,0c7.781-13.477,25.014-18.095,38.491-10.313l12.324,7.115
	c7.813-6.686,16.859-11.969,26.751-15.466v-14.209c0-15.562,12.616-28.177,28.177-28.177s28.177,12.616,28.177,28.177v14.209
	c9.892,3.497,18.939,8.779,26.751,15.466l12.324-7.115c13.477-7.781,30.71-3.164,38.491,10.313l0,0
	c7.781,13.477,3.164,30.71-10.313,38.491l-12.312,7.108c0.926,5.01,1.414,10.174,1.414,15.452c0,5.278-0.488,10.442-1.414,15.452
	l12.312,7.108C431.312,412.156,435.93,429.388,428.148,442.865z"/>
<path style="fill:#CCCAC4;" d="M378.76,381.815c0,31.123-25.23,56.355-56.354,56.355c-31.123,0-56.354-25.23-56.354-56.355
	c0-31.123,25.23-56.354,56.354-56.354C353.53,325.461,378.76,350.691,378.76,381.815z"/>
<path style="fill:#FFFFFF;" d="M350.583,381.815c0,15.562-12.616,28.177-28.177,28.177c-15.562,0-28.177-12.616-28.177-28.177
	c0-15.562,12.616-28.177,28.177-28.177C337.969,353.638,350.583,366.254,350.583,381.815z"/>
<path style="fill:#4C4C4C;" d="M393.432,72.219v1.078c0,4.465-3.62,8.084-8.084,8.084s-8.084-3.62-8.084-8.084v-1.078
	c0-4.465,3.62-8.084,8.084-8.084S393.432,67.754,393.432,72.219z M417.684,64.135c-4.465,0-8.084,3.62-8.084,8.084v1.078
	c0,4.465,3.62,8.084,8.084,8.084c4.465,0,8.084-3.62,8.084-8.084v-1.078C425.768,67.754,422.149,64.135,417.684,64.135z
	 M450.021,64.135c-4.465,0-8.084,3.62-8.084,8.084v1.078c0,4.465,3.62,8.084,8.084,8.084s8.084-3.62,8.084-8.084v-1.078
	C458.105,67.754,454.486,64.135,450.021,64.135z M512,83.537v21.558v301.811c0,28.231-22.969,51.2-51.2,51.2h-34.493
	c-0.386,0-0.761-0.037-1.133-0.088c-11.246,8.216-26.743,9.562-39.559,2.163l-7.533-4.35c-6.009,4.531-12.508,8.288-19.414,11.226
	v8.682c0,19.995-16.267,36.261-36.261,36.261s-36.261-16.267-36.261-36.261v-8.682c-6.907-2.937-13.406-6.695-19.414-11.226
	l-7.533,4.35c-12.769,7.373-28.201,6.062-39.436-2.075H51.2c-28.231,0-51.2-22.969-51.2-51.2V105.095V83.537
	c0-28.231,22.969-51.2,51.2-51.2h13.474v-2.695C64.674,13.297,77.971,0,94.316,0h86.232c16.345,0,29.642,13.297,29.642,29.642v2.695
	H460.8C489.031,32.337,512,55.306,512,83.537z M80.842,97.011h113.179V29.642c0-7.43-6.044-13.474-13.474-13.474H94.316
	c-7.43,0-13.474,6.044-13.474,13.474V97.011z M16.168,97.011h48.505V48.505H51.2c-19.316,0-35.032,15.716-35.032,35.032V97.011z
	 M413.793,411.375l-12.312-7.108c-2.964-1.711-4.529-5.104-3.907-8.47c0.849-4.595,1.279-9.3,1.279-13.984
	c0-4.683-0.43-9.387-1.279-13.982c-0.622-3.366,0.943-6.759,3.907-8.47l12.312-7.108c9.594-5.54,12.894-17.853,7.354-27.448
	c-5.54-9.594-17.854-12.893-27.448-7.354l-12.324,7.115c-2.967,1.713-6.694,1.37-9.298-0.859
	c-7.181-6.145-15.32-10.85-24.189-13.986c-3.23-1.143-5.389-4.196-5.389-7.622v-14.209c0-11.08-9.013-20.093-20.093-20.093
	c-11.08,0-20.093,9.013-20.093,20.093V302.1c0,3.426-2.159,6.48-5.389,7.622c-8.87,3.136-17.008,7.841-24.189,13.986
	c-2.603,2.228-6.331,2.573-9.298,0.859l-12.324-7.115c-9.594-5.54-21.908-2.242-27.448,7.354c-5.539,9.595-2.24,21.908,7.354,27.448
	l12.312,7.108c2.964,1.711,4.529,5.104,3.907,8.47c-0.849,4.595-1.279,9.299-1.279,13.982c0,4.683,0.43,9.387,1.279,13.984
	c0.622,3.366-0.943,6.759-3.907,8.47l-12.312,7.108c-9.594,5.539-12.894,17.853-7.354,27.447c1.099,1.904,2.474,3.548,4.032,4.937
	c0.023,0.018,0.044,0.037,0.067,0.055c6.296,5.558,15.684,6.786,23.349,2.363l12.324-7.115c1.258-0.727,2.653-1.083,4.041-1.083
	c1.885,0,3.758,0.659,5.257,1.942c7.182,6.145,15.32,10.851,24.189,13.986c3.23,1.141,5.389,4.196,5.389,7.622v14.209
	c0,11.08,9.013,20.093,20.093,20.093c11.08,0,20.093-9.013,20.093-20.093v-14.209c0-3.427,2.159-6.48,5.389-7.622
	c8.869-3.134,17.007-7.841,24.189-13.986c2.603-2.229,6.329-2.573,9.298-0.859l12.324,7.115c9.595,5.539,21.908,2.24,27.447-7.354
	C426.688,429.228,423.388,416.916,413.793,411.375z M495.832,113.179H202.105H72.758H16.168v293.726
	c0,19.316,15.716,35.032,35.032,35.032h156.074c-6.395-16.393-0.036-35.5,15.661-44.563l7.532-4.349
	c-0.449-3.718-0.677-7.47-0.677-11.21s0.226-7.491,0.677-11.209l-7.532-4.349c-17.315-9.997-23.27-32.218-13.272-49.535
	c9.997-17.315,32.218-23.27,49.535-13.272l7.533,4.349c6.009-4.531,12.507-8.288,19.414-11.225v-8.684
	c0-19.995,16.267-36.261,36.261-36.261s36.261,16.267,36.261,36.261v8.684c6.908,2.937,13.406,6.694,19.414,11.225l7.533-4.349
	c17.316-9.997,39.537-4.043,49.535,13.272c9.997,17.315,4.043,39.537-13.272,49.535l-7.532,4.348
	c0.449,3.719,0.677,7.47,0.677,11.21s-0.226,7.492-0.677,11.21l7.532,4.349c15.696,9.063,22.057,28.171,15.661,44.563h23.261
	c19.316,0,35.032-15.716,35.032-35.032V113.179H495.832z M495.832,83.537c0-19.316-15.716-35.032-35.032-35.032H210.189v48.505
	h285.642V83.537z M386.845,381.815c0,35.532-28.907,64.439-64.439,64.439s-64.439-28.907-64.439-64.439s28.907-64.439,64.439-64.439
	S386.845,346.283,386.845,381.815z M370.676,381.815c0-26.616-21.654-48.27-48.27-48.27c-26.616,0-48.27,21.654-48.27,48.27
	s21.654,48.27,48.27,48.27C349.022,430.085,370.676,408.432,370.676,381.815z M358.668,381.815
	c0,19.995-16.267,36.261-36.261,36.261s-36.261-16.267-36.261-36.261c0-19.994,16.267-36.261,36.261-36.261
	S358.668,361.82,358.668,381.815z M342.5,381.815c0-11.079-9.013-20.093-20.093-20.093c-11.08,0-20.093,9.013-20.093,20.093
	s9.013,20.093,20.093,20.093C333.487,401.908,342.5,392.894,342.5,381.815z"/>
<g>
</g>
<g>
</g>
<g>
</g>
<g>
</g>
<g>
</g>
<g>
</g>
<g>
</g>
<g>
</g>
<g>
</g>
<g>
</g>
<g>
</g>
<g>
</g>
<g>
</g>
<g>
</g>
<g>
</g>
</svg>
