<?xml version="1.0" encoding="iso-8859-1"?>
<!-- Generator: Adobe Illustrator 19.0.0, SVG Export Plug-In . SVG Version: 6.00 Build 0)  -->
<svg version="1.1" id="Layer_1" xmlns="http://www.w3.org/2000/svg" xmlns:xlink="http://www.w3.org/1999/xlink" x="0px" y="0px"
	 viewBox="0 0 512 512" style="enable-background:new 0 0 512 512;" xml:space="preserve">
<path style="fill:#D0F7D6;" d="M470.33,273.297c0,127.367-103.477,230.619-231.122,230.619S8.085,400.664,8.085,273.297
	s103.477-230.62,231.122-230.62S470.33,145.929,470.33,273.297z"/>
<path style="fill:#A3CCAA;" d="M236.561,388.606c0,4.465-3.62,8.084-8.084,8.084H78.248c-4.465,0-8.084-3.62-8.084-8.084
	s3.62-8.084,8.084-8.084h150.229C232.942,380.522,236.561,384.141,236.561,388.606z M262.32,380.522h-1.156
	c-4.465,0-8.084,3.62-8.084,8.084s3.62,8.084,8.084,8.084h1.156c4.465,0,8.084-3.62,8.084-8.084S266.784,380.522,262.32,380.522z"/>
<path style="fill:#80A886;" d="M206.191,332.222v64.468H88.978v-64.468c0-30.191,24.475-54.664,54.664-54.664h7.883
	C181.716,277.558,206.191,302.033,206.191,332.222z M147.584,249.274c18.88,0,34.187-15.273,34.187-34.112
	s-15.306-34.112-34.187-34.112s-34.187,15.273-34.187,34.112S128.704,249.274,147.584,249.274z"/>
<path style="fill:#FC8059;" d="M264.464,9.266c126.632,11.911,227.413,112.472,239.35,238.829
	c1.277,13.521-9.411,25.201-23.022,25.201H262.32c-12.764,0-23.112-10.325-23.112-23.062V32.238
	C239.208,18.657,250.914,7.992,264.464,9.266z"/>
<path style="fill:#BF5243;" d="M443.746,215.641c0,4.465-3.62,8.084-8.084,8.084H285.432c-4.465,0-8.084-3.62-8.084-8.084
	c0-4.465,3.62-8.084,8.084-8.084h150.229C440.126,207.557,443.746,211.177,443.746,215.641z M469.504,207.557h-1.155
	c-4.465,0-8.084,3.62-8.084,8.084c0,4.465,3.62,8.084,8.084,8.084h1.155c4.465,0,8.084-3.62,8.084-8.084
	C477.588,211.177,473.969,207.557,469.504,207.557z"/>
<path style="fill:#FED766;" d="M413.375,159.759v63.904H296.163v-63.904c0-30.191,24.475-54.664,54.664-54.664h7.883
	C388.9,105.095,413.375,129.569,413.375,159.759z M354.769,76.31c18.88,0,34.186-15.273,34.186-34.112S373.649,8.085,354.769,8.085
	s-34.187,15.273-34.187,34.112S335.888,76.31,354.769,76.31z"/>
<path style="fill:#4C4C4C;" d="M147.584,257.358c23.308,0,42.271-18.93,42.271-42.196s-18.962-42.196-42.271-42.196
	s-42.271,18.929-42.271,42.196S124.276,257.358,147.584,257.358z M147.584,189.133c14.393,0,26.102,11.677,26.102,26.028
	c0,14.352-11.709,26.028-26.102,26.028c-14.393,0-26.102-11.677-26.102-26.028C121.482,200.81,133.191,189.133,147.584,189.133z
	 M228.477,380.522h-14.202v-41.03c0-34.6-28.149-62.749-62.749-62.749h-7.883c-34.6,0-62.749,28.149-62.749,62.749v41.03h-2.646
	c-4.465,0-8.084,3.62-8.084,8.084s3.62,8.084,8.084,8.084h150.229c4.465,0,8.084-3.62,8.084-8.084S232.942,380.522,228.477,380.522z
	 M198.105,380.522H97.062v-41.03c0-25.685,20.896-46.58,46.58-46.58h7.883c25.684,0,46.58,20.896,46.58,46.58V380.522z
	 M262.32,380.522c4.465,0,8.084,3.62,8.084,8.084s-3.62,8.084-8.084,8.084h-1.156c-4.465,0-8.084-3.62-8.084-8.084
	s3.62-8.084,8.084-8.084H262.32z M477.588,215.641c0,4.465-3.62,8.084-8.084,8.084h-1.155c-4.465,0-8.084-3.62-8.084-8.084
	c0-4.465,3.62-8.084,8.084-8.084h1.155C473.969,207.557,477.588,211.177,477.588,215.641z M511.862,247.335
	c-7.548-79.901-49.526-151.693-115.453-197.849c0.415-2.368,0.631-4.804,0.631-7.289C397.039,18.93,378.077,0,354.769,0
	c-12.139,0-23.1,5.135-30.817,13.342C304.923,7.17,285.192,3.095,265.22,1.216c-8.716-0.817-17.434,2.092-23.912,7.989
	c-6.473,5.893-10.186,14.287-10.186,23.032v2.488c-60.859,2.004-117.785,26.601-161.054,69.775
	C24.886,149.587,0.001,209.533,0.001,273.296s24.884,123.709,70.067,168.795C115.249,487.173,175.316,512,239.208,512
	s123.959-24.827,169.139-69.908c43.27-43.176,67.924-99.977,69.934-160.711h2.511c8.779,0,17.202-3.722,23.108-10.211
	C509.78,264.707,512.682,256.019,511.862,247.335z M354.769,16.168c14.393,0,26.102,11.677,26.102,26.028
	c0,2.784-0.441,5.467-1.257,7.985c-0.057,0.156-0.11,0.314-0.157,0.471c-3.528,10.214-13.263,17.572-24.689,17.572
	c-14.393,0-26.102-11.676-26.102-26.028S340.376,16.168,354.769,16.168z M239.208,495.832
	c-122.983,0-223.037-99.829-223.037-222.536c0-120.003,95.704-218.125,214.953-222.391v199.329
	c0,17.174,13.994,31.147,31.196,31.147H462.1C457.825,400.36,359.481,495.832,239.208,495.832z M491.941,260.288
	c-2.89,3.175-6.849,4.925-11.149,4.925H262.32c-8.287,0-15.028-6.719-15.028-14.978V42.677V32.238c0-4.265,1.741-8.198,4.901-11.075
	c3.166-2.881,7.254-4.248,11.514-3.847c17.455,1.642,34.715,5.066,51.43,10.199c-1.706,4.575-2.639,9.522-2.639,14.683
	c0,23.267,18.962,42.196,42.271,42.196c14.901,0,28.025-7.735,35.554-19.396c60.199,43.494,98.465,109.995,105.442,183.858
	C496.165,253.079,494.806,257.139,491.941,260.288z M435.661,207.557h-14.202v-41.03c0-34.599-28.149-62.749-62.749-62.749h-7.883
	c-34.6,0-62.749,28.149-62.749,62.749v41.03h-2.646c-4.465,0-8.084,3.62-8.084,8.084c0,4.465,3.62,8.084,8.084,8.084h150.229
	c4.465,0,8.084-3.62,8.084-8.084C443.747,211.177,440.126,207.557,435.661,207.557z M405.291,207.557H304.247v-41.03
	c0-25.684,20.896-46.58,46.58-46.58h7.883c25.685,0,46.58,20.896,46.58,46.58v41.03H405.291z"/>
<g>
</g>
<g>
</g>
<g>
</g>
<g>
</g>
<g>
</g>
<g>
</g>
<g>
</g>
<g>
</g>
<g>
</g>
<g>
</g>
<g>
</g>
<g>
</g>
<g>
</g>
<g>
</g>
<g>
</g>
</svg>
